# xmcd CD database file
#
# Track frame offsets:
#	150
#	27179
#	56217
#	90647
#	115347
#	130197
#	152913
#	177477
#	202270
#	234418
#
# Disc length: 3377 seconds
#
# Revision: 0
# Processed by: cddbd v1.5.2PL0 Copyright (c) Steve Scherf et al.
# Submitted via: CDex 1.70beta2
#
DISCID=8c0d2f0a
DTITLE=Dennis Hysom and Dan Alvarez - Ocean Planet
DYEAR=2001
DGENRE=New Age
TTITLE0=Santa Christa
TTITLE1=Dolphin Dance
TTITLE2=Aleutian Blue
TTITLE3=Alexandria
TTITLE4=Southern Lights
TTITLE5=Ibiza
TTITLE6=Over the Irish Sea
TTITLE7=Java Dreams
TTITLE8=Land's End
TTITLE9=Reunion
EXTD=YEAR: 2001
EXTT0=
EXTT1=
EXTT2=
EXTT3=
EXTT4=
EXTT5=
EXTT6=
EXTT7=
EXTT8=
EXTT9=
PLAYORDER=
